<mxfile host="app.diagrams.net" modified="2024-06-04T11:45:41.809Z" agent="Mozilla/5.0 (Windows NT 10.0; Win64; x64) AppleWebKit/537.36 (KHTML, like Gecko) Chrome/121.0.0.0 Safari/537.36" etag="heaxldsoRyDf7x5doV5a" version="24.4.13" type="device">
  <diagram name="PÃ¡gina-1" id="z9JXjwmIPrOopKerDGIp">
    <mxGraphModel dx="1434" dy="782" grid="1" gridSize="10" guides="1" tooltips="1" connect="1" arrows="1" fold="1" page="1" pageScale="1" pageWidth="827" pageHeight="1169" math="0" shadow="0">
      <root>
        <mxCell id="0" />
        <mxCell id="1" parent="0" />
        <mxCell id="qsiT9CFfueUEzh0nLCG3-30" value="" style="rounded=1;whiteSpace=wrap;html=1;rotation=90;gradientColor=#99FFFF;gradientDirection=east;" vertex="1" parent="1">
          <mxGeometry x="211" y="200" width="406" height="250" as="geometry" />
        </mxCell>
        <mxCell id="qsiT9CFfueUEzh0nLCG3-32" value="" style="ellipse;shape=cloud;whiteSpace=wrap;html=1;" vertex="1" parent="1">
          <mxGeometry x="354" y="130" width="120" height="60" as="geometry" />
        </mxCell>
      </root>
    </mxGraphModel>
  </diagram>
</mxfile>
